<svg xmlns="http://www.w3.org/2000/svg" xmlns:xlink="http://www.w3.org/1999/xlink" xml:space="preserve" version="1.1" style="shape-rendering:geometricPrecision;text-rendering:geometricPrecision;image-rendering:optimizeQuality;" viewBox="0 0 60000 75000" x="0px" y="0px" width="54px" height="54px" stroke="none" stroke-width="1" fill="none" fill-rule="evenodd" clip-rule="evenodd"><defs><style type="text/css">

    .fil0 {fill:black;fill-rule:nonzero}
   
  </style></defs><g><path class="fil0" d="M42243 5576c38,19 74,44 105,75l0 0 6 6 2 2 4 5 3 3 3 3 4 5 1 2 5 6 1 1c2,2 4,5 6,7l0 0c2,3 4,5 6,8l1 1c2,2 3,5 5,7l0 0 0 0 4 6 2 3 3 4 3 5 1 2c37,62 55,131 56,199l0 1c0,3 0,5 0,8l0 2 0 5 0 6 0 2c-2,34 -8,69 -18,102l0 0 0 1c-19,60 -52,115 -98,161l0 0 -6 6 -2 2 -5 4 -3 3 -3 3 -5 4 -2 1 -6 5 -1 1c-2,2 -5,4 -7,6l0 0c-3,2 -5,4 -8,6l-1 1c-2,2 -5,3 -7,5l0 0 -3 2 0 0 -3640 2481c-152,688 -83,1441 116,2180 249,923 701,1815 1190,2534l15212 22371c9,12 17,24 25,36 115,188 55,434 -133,548l-30302 18452c-181,117 -424,69 -546,-110 -2158,-3162 -4651,-6128 -7143,-9094 -4175,-4968 -8350,-9936 -10977,-15815 -1486,-3327 -1638,-6049 -930,-7859 524,-1340 1329,-1989 2537,-2669 3000,-1687 10022,-4860 17043,-8034 4243,-1918 8486,-3835 11808,-5403 196,-93 355,-163 521,-225 166,-63 332,-116 543,-175 702,-197 1457,-377 2237,-409 799,-34 1610,88 2394,502zm-33211 13895c76,5 153,11 230,20 1831,201 4028,1487 6172,4109l25794 -17578c-445,-131 -898,-170 -1348,-150 -695,29 -1395,197 -2052,381 -190,53 -337,100 -478,153 -141,53 -283,116 -461,200 -3352,1582 -7586,3496 -11821,5409 -6401,2893 -12801,5785 -16036,7456zm28832 1758c-30,-46 -18,-108 28,-138 46,-30 108,-18 138,28l5757 8721c30,46 18,108 -28,138 -46,30 -108,18 -138,-28l-5757 -8721zm-1164 -3598c-30,-46 -18,-108 28,-138 46,-30 108,-18 138,28l5757 8721c30,46 18,108 -28,138 -46,30 -108,18 -138,-28l-5757 -8721zm-24626 1327c-132,-39 -207,-178 -168,-311 39,-132 178,-207 311,-168 614,185 1247,432 1835,807 595,379 1139,886 1566,1588 72,118 35,271 -83,343 -118,72 -271,35 -343,-83 -384,-631 -874,-1087 -1408,-1428 -540,-344 -1132,-574 -1710,-749zm25697 -9614l-22192 15123c-175,119 -410,81 -539,-83l0 0c-2073,-2635 -4163,-3913 -5862,-4100 -764,-84 -1443,56 -1998,394 -555,339 -994,881 -1276,1602 -637,1628 -477,4130 914,7244 2582,5780 6720,10704 10858,15627 2430,2891 4859,5782 6979,8844l29630 -18043 -14991 -22045c-535,-787 -1029,-1763 -1303,-2775 -160,-591 -245,-1197 -221,-1789z"/></g></svg>