<svg xmlns="http://www.w3.org/2000/svg" xmlns:xlink="http://www.w3.org/1999/xlink" version="1.1" x="0px" y="0px" width="54px" height="54px" viewBox="0 0 100 125" enable-background="new 0 0 100 100" xml:space="preserve"><g><g><path d="M98.889,28.666c-0.201-0.483-0.717-0.702-1.191-0.581l-35.77,9.983L71.91,2.295c0.129-0.457-0.221-1.053-0.579-1.192    c-1.995-0.773-4.155-0.82-6.134,0c-1.977,0.819-3.518,2.359-4.336,4.336v0.005c-0.002,0.002-0.004,0.003-0.004,0.006    L46.025,42.509l-8.633,2.41c-2.782,0.698-6.542,0.277-7.985-3.21c-3.169-7.653-11.975-11.302-19.63-8.132    C2.124,36.748-1.524,45.555,1.646,53.21c2.395,5.78,8.001,9.274,13.9,9.274c1.912,0,3.856-0.367,5.73-1.145l19.418-8.045    c3.795-1.498,7.579,2.225,6.017,5.994L38.66,78.727c-3.169,7.654,0.478,16.463,8.131,19.633c1.874,0.776,3.816,1.146,5.729,1.146    c5.898,0,11.508-3.496,13.9-9.276c3.171-7.655-0.479-16.463-8.131-19.633c-3.49-1.445-3.909-5.211-3.207-7.996l2.393-8.57    L94.543,39.14c0.002,0,0.003-0.002,0.004-0.003c0.002,0,0.004,0,0.006-0.001C98.634,37.445,100.586,32.745,98.889,28.666z     M20.51,59.493c-6.635,2.748-14.269-0.414-17.016-7.05c-2.748-6.635,0.415-14.271,7.049-17.021    c6.632-2.749,14.268,0.415,17.017,7.05c1.245,3.007,4.122,4.736,7.565,4.736c0.618,0,1.258-0.077,1.906-0.191l1.99,4.804    L20.51,59.493z M40.903,51.139L39,46.547l6.089-1.7l-2.45,6.12C42.064,50.948,41.481,51.002,40.903,51.139z M57.523,72.443    c6.635,2.748,9.797,10.384,7.049,17.021c-2.747,6.636-10.381,9.798-17.015,7.05c-6.634-2.75-9.796-10.385-7.048-17.02    l7.668-18.516l4.785,1.982C52.206,67.229,53.975,70.975,57.523,72.443z M53.454,61.001l-4.583-1.897    c1.027-4.158-1.33-6.677-4.236-7.737L62.712,6.202c0.614-1.482,1.769-2.637,3.252-3.25c1.208-0.501,2.519-0.586,3.765-0.271    L53.454,61.001z M93.788,37.289L58.152,51.604l3.146-11.28l36.012-10.052C98.025,33.113,96.574,36.134,93.788,37.289z     M15.529,38.457c-4.971,0-9,4.03-9,9.001c0,4.972,4.029,9.001,9,9.001c4.971,0,9-4.029,9-9.001    C24.53,42.487,20.5,38.457,15.529,38.457z M15.529,54.46c-3.866,0-7-3.135-7-7.001s3.134-7.001,7-7.001c3.866,0,7,3.135,7,7.001    S19.396,54.46,15.529,54.46z M43.538,84.48c0,4.972,4.029,9,9,9c4.971,0,9-4.028,9-9c0-4.973-4.029-9.002-9-9.002    C47.567,75.479,43.538,79.508,43.538,84.48z M59.538,84.479c0,3.867-3.134,7.002-7,7.002s-7-3.135-7-7.002s3.134-7.002,7-7.002    S59.538,80.611,59.538,84.479z M51.652,44.348c-2.208,0-4,1.792-4,4c0,2.208,1.791,4,4,4c2.209,0,4-1.791,4-4    C55.652,46.139,53.861,44.348,51.652,44.348z M51.652,50.349c-1.104,0-2-0.896-2-2s0.896-2,2-2c1.104,0,2,0.896,2,2    S52.758,50.349,51.652,50.349z"/></g></g></svg>